<svg width="456" height="422" xmlns="http://www.w3.org/2000/svg" xmlns:xlink="http://www.w3.org/1999/xlink" xml:space="preserve" overflow="hidden"><g transform="translate(-111 -480)"><path d="M347.486 492.996C371.374 503.286 406.602 519.26 419.412 540.468 443.294 580.002 445.482 635.9 387.169 660.516 342.215 679.495 258.387 654.682 258.387 654.682 258.387 654.682 298.651 696.066 351.071 694.002 415.413 691.467 452.445 660.949 467.98 617.453 479.683 584.686 472.718 551.571 443.99 521.753 417.78 494.55 379.204 496.939 347.486 492.996Z" stroke="#FFFFFF" stroke-width="2.22813" fill-rule="evenodd" transform="matrix(1.00149 0 0 1 -63.5582 -11.891)"/><path d="M408.776 595.337C408.776 614.257 393.438 629.594 374.518 629.594 355.598 629.594 340.261 614.257 340.261 595.337 340.261 576.417 355.598 561.08 374.518 561.08 393.438 561.08 408.776 576.417 408.776 595.337Z" stroke="#FFFFFF" stroke-width="2.22813" fill-rule="evenodd" transform="matrix(1.00149 0 0 1 -63.5582 -11.891)"/><path d="M618.044 735.098C618.044 754.018 602.707 769.355 583.787 769.355 564.867 769.355 549.529 754.018 549.529 735.098 549.529 716.178 564.867 700.84 583.787 700.84 602.707 700.84 618.044 716.178 618.044 735.098Z" stroke="#FFFFFF" stroke-width="2.22813" fill-rule="evenodd" transform="matrix(1.00149 0 0 1 -63.5582 -11.891)"/><path d="M218.124 907.958C218.124 907.958 320.27 692.813 456.769 692.813 502.445 692.813 530.399 721.857 529.588 759.674 528.067 830.493 450.391 907.912 450.391 907.912L432.517 907.25C432.517 907.25 486.775 837.213 488.544 792.112 489.868 758.351 475.99 740.064 438.233 739.815 338.274 739.153 243.804 908.035 243.804 908.035 235.198 907.912 226.731 907.958 218.124 907.958Z" stroke="#FFFFFF" stroke-width="2.22813" fill-rule="evenodd" transform="matrix(1.00149 0 0 1 -63.5582 -11.891)"/><path d="M176.584 704.73C175.938 689.117 175.426 674.113 175.426 674.113 175.426 674.113 194.207 648.063 218.62 625.125 240.967 604.128 262.222 592.493 277.703 586.731 280.082 592.894 283.321 601.799 286.307 610.562 268.774 615.849 249.904 629.301 234.178 642.172 212.242 660.123 191.429 681.598 176.584 704.73Z" stroke="#FFFFFF" stroke-width="2.22813" fill-rule="evenodd" transform="matrix(1.00149 0 0 1 -63.5582 -11.891)"/><path d="M229.543 748.917 237.156 748.917 246.755 710.521 238.48 710.687 229.543 748.917Z" stroke="#FFFFFF" stroke-width="0.917463" fill-rule="evenodd" transform="matrix(1.00149 0 0 1 -63.5582 -11.891)"/><path d="M242.777 738.822 250.389 738.822 258.168 710.521 249.892 710.687 242.777 738.822Z" stroke="#FFFFFF" stroke-width="0.917463" fill-rule="evenodd" transform="matrix(1.00149 0 0 1 -63.5582 -11.891)"/><path d="M253.431 738.881 255.366 731.516 279.087 731.022 276.823 738.982 253.431 738.881Z" stroke="#FFFFFF" stroke-width="0.917463" fill-rule="evenodd" transform="matrix(1.00149 0 0 1 -63.5582 -11.891)"/><path d="M250.798 748.829 252.733 741.466 276.455 740.97 274.192 748.93 250.798 748.829Z" stroke="#FFFFFF" stroke-width="0.917463" fill-rule="evenodd" transform="matrix(1.00149 0 0 1 -63.5582 -11.891)"/><path d="M259.231 758.749 261.166 751.386 284.887 750.89 282.625 758.852 259.231 758.749Z" stroke="#FFFFFF" stroke-width="0.917463" fill-rule="evenodd" transform="matrix(1.00149 0 0 1 -63.5582 -11.891)"/><path d="M256.6 768.698 258.535 761.336 282.254 760.839 279.992 768.8 256.6 768.698Z" stroke="#FFFFFF" stroke-width="0.917463" fill-rule="evenodd" transform="matrix(1.00149 0 0 1 -63.5582 -11.891)"/><path d="M229.543 748.917 237.156 748.917 246.755 710.521 238.48 710.687 229.543 748.917Z" stroke="#FFFFFF" stroke-width="0.917463" fill-rule="evenodd" transform="matrix(-1.00149 0 0 -1 422.283 1498.53)"/><path d="M242.777 738.822 250.389 738.822 258.168 710.521 249.892 710.687 242.777 738.822Z" stroke="#FFFFFF" stroke-width="0.917463" fill-rule="evenodd" transform="matrix(-1.00149 0 0 -1 422.283 1498.53)"/><path d="M253.431 738.881 255.366 731.516 279.087 731.022 276.823 738.982 253.431 738.881Z" stroke="#FFFFFF" stroke-width="0.917463" fill-rule="evenodd" transform="matrix(-1.00149 0 0 -1 422.283 1498.53)"/><path d="M250.798 748.829 252.733 741.466 276.455 740.97 274.192 748.93 250.798 748.829Z" stroke="#FFFFFF" stroke-width="0.917463" fill-rule="evenodd" transform="matrix(-1.00149 0 0 -1 422.283 1498.53)"/><path d="M259.231 758.749 261.166 751.386 284.887 750.89 282.625 758.852 259.231 758.749Z" stroke="#FFFFFF" stroke-width="0.917463" fill-rule="evenodd" transform="matrix(-1.00149 0 0 -1 422.283 1498.53)"/><path d="M256.6 768.698 258.535 761.336 282.254 760.839 279.992 768.8 256.6 768.698Z" stroke="#FFFFFF" stroke-width="0.917463" fill-rule="evenodd" transform="matrix(-1.00149 0 0 -1 422.283 1498.53)"/></g></svg>